<svg width="25" height="26" fill="none" xmlns="http://www.w3.org/2000/svg"><path d="M19.353 8.059a7.059 7.059 0 01-7.059 7.059m7.059-7.06A7.059 7.059 0 0012.294 1m7.059 7.059H5.235m7.06 7.059a7.059 7.059 0 01-7.06-7.06m7.06 7.06c1.559 0 2.823-3.16 2.823-7.06C15.118 4.16 13.854 1 12.294 1m0 14.118c-1.56 0-2.823-3.16-2.823-7.06C9.47 4.16 10.735 1 12.294 1M5.235 8.059A7.059 7.059 0 0112.295 1m2.823 21.177a2.823 2.823 0 11-5.647 0m5.647 0a2.824 2.824 0 10-5.647 0m5.647 0h8.47m-14.117 0H1" stroke="#2B2B2B" stroke-width="2" stroke-linecap="round" stroke-linejoin="round"/></svg>