<svg width="70" height="35" fill="none" xmlns="http://www.w3.org/2000/svg"><path d="M13.86 33.326a16.417 16.417 0 01-9.19-5.791A16.224 16.224 0 011.2 16.169 16.257 16.257 0 016.417 5.482 16.463 16.463 0 0117.554 1.15c4.13 0 8.107 1.548 11.138 4.332a16.257 16.257 0 015.266 11.943v.046a16.23 16.23 0 01-3.52 10.064 16.416 16.416 0 01-9.19 5.791l-2.558-16.06h-2.272l-2.559 16.06zM62.82 4.651a16.285 16.285 0 015.822 9.117L52.483 16.31v2.273l16.16 2.543a16.285 16.285 0 01-5.823 9.117 16.478 16.478 0 01-11.446 3.45 16.446 16.446 0 01-10.76-5.186 16.24 16.24 0 01-4.356-11.036v-.049a16.24 16.24 0 014.356-11.036A16.446 16.446 0 0151.374 1.2 16.48 16.48 0 0162.82 4.65z" stroke="#fff" stroke-width="2.3"/></svg>