<svg width="24" height="21" fill="none" xmlns="http://www.w3.org/2000/svg"><path d="M1.65 8.742c6.442-2.865 10.738-4.755 12.888-5.668C20.675.468 21.95.015 22.782 0c.182-.003.591.043.856.263.223.185.285.435.314.61.03.176.066.576.037.889-.332 3.568-1.771 12.226-2.503 16.222-.31 1.691-.92 2.258-1.51 2.314-1.284.12-2.259-.866-3.502-1.698-1.945-1.302-3.043-2.112-4.931-3.383-2.182-1.468-.768-2.275.476-3.593.325-.345 5.98-5.597 6.089-6.073.014-.06.026-.282-.103-.399-.13-.117-.32-.077-.457-.045-.196.045-3.303 2.142-9.322 6.29-.882.619-1.681.92-2.397.904-.789-.017-2.307-.455-3.435-.83C1.01 11.012-.09 10.77.006 9.99c.05-.406.598-.822 1.644-1.247z" fill="#fff"/></svg>