<svg width="26" height="26" viewBox="0 0 26 26" fill="none" xmlns="http://www.w3.org/2000/svg">
<path d="M4.74958 4.72265V2.48906C4.74958 1.66667 5.42117 1 6.24961 1H20.4999C21.3284 1 22 1.66667 22 2.48906V8.4453M1.00067 22.0218L1.00078 10.6996C1.00079 9.56552 1.00036 7.95023 1 6.78063C0.999744 5.95803 1.67143 5.29195 2.50009 5.29195H9.64802L13.1044 8.95707H23.5C24.3284 8.95707 25 9.62378 25 10.4462L24.9996 22.022C24.9996 23.6667 23.6564 25 21.9996 25L4.00073 25C2.34383 24.9999 1.00065 23.6666 1.00067 22.0218Z" stroke="#2B2B2B" stroke-width="2" stroke-linecap="round" stroke-linejoin="round"/>
</svg>
