<svg width="25" height="26" viewBox="0 0 25 26" fill="none" xmlns="http://www.w3.org/2000/svg">
<path d="M19.3529 8.05882C19.3529 11.9573 16.1926 15.1176 12.2941 15.1176M19.3529 8.05882C19.3529 4.16034 16.1926 1 12.2941 1M19.3529 8.05882H5.23529M12.2941 15.1176C8.39564 15.1176 5.23529 11.9573 5.23529 8.05882M12.2941 15.1176C13.8535 15.1176 15.1176 11.9573 15.1176 8.05882C15.1176 4.16034 13.8535 1 12.2941 1M12.2941 15.1176C10.7347 15.1176 9.47059 11.9573 9.47059 8.05882C9.47059 4.16034 10.7347 1 12.2941 1M5.23529 8.05882C5.23529 4.16034 8.39564 1 12.2941 1M15.1176 22.1765C15.1176 23.7359 13.8535 25 12.2941 25C10.7347 25 9.47059 23.7359 9.47059 22.1765M15.1176 22.1765C15.1176 20.6171 13.8535 19.3529 12.2941 19.3529C10.7347 19.3529 9.47059 20.6171 9.47059 22.1765M15.1176 22.1765H23.5882M9.47059 22.1765H1" stroke="#2B2B2B" stroke-width="2" stroke-linecap="round" stroke-linejoin="round"/>
</svg>
