<svg width="70" height="35" viewBox="0 0 70 35" fill="none" xmlns="http://www.w3.org/2000/svg">
<path d="M13.8592 33.3263C10.2323 32.4934 6.98653 30.4557 4.66958 27.5345C2.11513 24.3139 0.876996 20.2557 1.20056 16.1694C1.52412 12.0831 3.38584 8.26672 6.41643 5.48227C9.44721 2.69764 13.4241 1.15003 17.5541 1.15003C21.684 1.15003 25.6609 2.69765 28.6917 5.48228C31.7223 8.26672 33.584 12.0831 33.9076 16.1694C33.9407 16.5885 33.9575 17.0072 33.9581 17.4248C33.9581 17.4324 33.9581 17.44 33.9581 17.4475C33.9581 17.4553 33.9581 17.463 33.9581 17.4707C33.953 21.1091 32.7214 24.6563 30.4385 27.5345C28.1216 30.4558 24.8758 32.4934 21.2489 33.3263L18.6897 17.2666H16.4184L13.8592 33.3263ZM62.8204 4.65094C65.757 6.95187 67.8038 10.172 68.6425 13.7677L52.4833 16.3115V18.5835L68.6425 21.1274C67.8038 24.7231 65.757 27.9432 62.8204 30.2441C59.5788 32.7841 55.4917 34.0168 51.3745 33.6948C47.2574 33.3727 43.4152 31.5198 40.6139 28.5077C37.8184 25.502 36.2644 21.5624 36.2581 17.4724C36.2581 17.456 36.2581 17.4396 36.2581 17.4232C36.2642 13.333 37.8183 9.39321 40.6139 6.38733C43.4152 3.37528 47.2574 1.52237 51.3745 1.20031C55.4917 0.878253 59.5788 2.11096 62.8204 4.65094Z" stroke="white" stroke-width="2.3"/>
</svg>
