<svg width="26" height="25" viewBox="0 0 26 25" fill="none" xmlns="http://www.w3.org/2000/svg">
<path d="M22.3333 9.66667V3.66667C22.3333 2.19391 21.1394 1 19.6667 1H3.66667C2.19391 1 1 2.19391 1 3.66667V14.1015C1 15.5742 2.19391 16.7681 3.66667 16.7681H5.75362V22.3333L11.3188 16.7681H11.6667M18.5507 20.1884L22.029 23.6667V20.1884H22.3333C23.8061 20.1884 25 18.9945 25 17.5217V13C25 11.5272 23.8061 10.3333 22.3333 10.3333H14.3333C12.8606 10.3333 11.6667 11.5272 11.6667 13V17.5217C11.6667 18.9945 12.8606 20.1884 14.3333 20.1884H18.5507Z" stroke="#2B2B2B" stroke-width="2" stroke-linecap="round" stroke-linejoin="round"/>
</svg>
