<svg width="24" height="21" viewBox="0 0 24 21" fill="none" xmlns="http://www.w3.org/2000/svg">
<path d="M1.64987 8.74241C8.09231 5.87655 12.3883 3.98719 14.5378 3.07435C20.675 0.468004 21.9503 0.0152544 22.7815 0.000144937C22.9643 -0.00298376 23.3731 0.0432752 23.6379 0.26264C23.8614 0.447868 23.9229 0.698084 23.9524 0.8737C23.9818 1.04932 24.0185 1.44937 23.9893 1.76197C23.6567 5.32986 22.2177 13.9882 21.4856 17.9843C21.1758 19.6752 20.5658 20.2421 19.9753 20.2976C18.6919 20.4182 17.7174 19.4317 16.4744 18.5997C14.5294 17.298 13.4305 16.4876 11.5425 15.2173C9.36064 13.7492 10.7751 12.9423 12.0185 11.6237C12.344 11.2786 17.9985 6.02727 18.1079 5.55089C18.1216 5.49131 18.1343 5.26923 18.0051 5.15196C17.8759 5.0347 17.6851 5.0748 17.5475 5.10669C17.3524 5.1519 14.2452 7.24882 8.22584 11.3975C7.34386 12.0158 6.54499 12.3171 5.82924 12.3013C5.04017 12.2839 3.52233 11.8458 2.39397 11.4713C1.00999 11.012 -0.0899675 10.7691 0.00581422 9.98904C0.0557033 9.58272 0.603724 9.16718 1.64987 8.74241Z" fill="white"/>
</svg>
